<svg id="72999efa-835b-4741-88fc-8e3296749d22" data-name="Layer 1" xmlns="http://www.w3.org/2000/svg" viewBox="0 0 50 50"><title>facebook</title><path d="M28.44,45.1l-7.95,0V28.12H14.88V20.5h5.66c0-.1,0-.19,0-.29,0-.58,0-1.16,0-1.74,0-1.31,0-2.66.11-4A7.89,7.89,0,0,1,26.4,7.37,17.07,17.07,0,0,1,32.53,7l1.16.07c.23,0,.46,0,.7.08l.73.09V14.1H33.21l-.82,0c-.72,0-1.46,0-2.17.1-1.09.11-1.59.56-1.67,1.5-.09,1.2-.07,2.39,0,3.65,0,.38,0,.76,0,1.15H35l-.25,1.9c-.21,1.68-.43,3.31-.66,4.95a1.08,1.08,0,0,1-1,.78c-.8,0-1.61,0-2.42,0H28.44Zm-6.95-1,5.95,0V27.15h3.28c.8,0,1.59,0,2.39,0,0,0,0,0,0,0,.23-1.59.43-3.19.64-4.83l.1-.77H27.51V21c0-.55,0-1.09,0-1.63,0-1.29,0-2.5.05-3.75a2.5,2.5,0,0,1,2.56-2.42c.75-.08,1.52-.09,2.26-.1l.81,0h.94v-5l-.47,0L32.47,8a16.09,16.09,0,0,0-5.78.33,6.91,6.91,0,0,0-5,6.22c-.09,1.3-.1,2.64-.11,3.93,0,.58,0,1.17,0,1.75,0,.16,0,.33,0,.51v.76H15.88v5.62h5.62Z" style="fill:#010101"/><path d="M39.76,1.63a8.61,8.61,0,0,1,8.6,8.6V39.76a8.61,8.61,0,0,1-8.6,8.6H10.24a8.61,8.61,0,0,1-8.6-8.6V10.24a8.61,8.61,0,0,1,8.6-8.6H39.76m0-1H10.24A9.61,9.61,0,0,0,.62,10.24V39.76a9.61,9.61,0,0,0,9.61,9.61H39.76a9.61,9.61,0,0,0,9.61-9.61V10.24A9.61,9.61,0,0,0,39.76.62Z" style="fill:#010101"/></svg>