<svg id="c2568bdc-91f2-42af-9a26-82e9f7107193" data-name="Layer 1" xmlns="http://www.w3.org/2000/svg" viewBox="0 0 50 50"><title>home-hygiene</title><path d="M43.5,31H38V29.68H43.5a4.68,4.68,0,0,0,0-9.37H38V19H43.5a6,6,0,0,1,0,12Z" style="fill:#87559a"/><path d="M12,31H6.5a6,6,0,0,1,0-12H12v1.31H6.5a4.68,4.68,0,0,0,0,9.37H12Z" style="fill:#aa76b3"/><path d="M25,35a41.8,41.8,0,0,1-9.64-1.11,25.93,25.93,0,0,0-3.75-.62,1.15,1.15,0,0,1-.83-.44,1.4,1.4,0,0,1-.28-1.1,40.9,40.9,0,0,0,.45-6.3,41,41,0,0,0-.45-6.29A1.4,1.4,0,0,1,10.8,18a1.14,1.14,0,0,1,.84-.43,25.78,25.78,0,0,0,7.05-1.39A20.51,20.51,0,0,1,25,15a20.51,20.51,0,0,1,6.31,1.2,25.78,25.78,0,0,0,7.05,1.39,1.14,1.14,0,0,1,.84.43,1.4,1.4,0,0,1,.29,1.11A41,41,0,0,0,39,25.43a40.89,40.89,0,0,0,.45,6.3,1.4,1.4,0,0,1-.28,1.1,1.15,1.15,0,0,1-.83.44,25.93,25.93,0,0,0-3.75.62A41.8,41.8,0,0,1,25,35Z" style="fill:#fdd140"/><path d="M25,15.49c4.69,0,7.59,2.38,13.34,2.59a.8.8,0,0,1,.67,1,41.25,41.25,0,0,0-.46,6.37A41.21,41.21,0,0,0,39,31.81a.8.8,0,0,1-.65,1C34.94,33,32,34.5,25,34.5S15.06,33,11.64,32.78a.8.8,0,0,1-.65-1,41.2,41.2,0,0,0,.46-6.38A41.25,41.25,0,0,0,11,19.06a.8.8,0,0,1,.67-1c5.75-.22,8.65-2.59,13.34-2.59m0-1a20.9,20.9,0,0,0-6.45,1.22,25.38,25.38,0,0,1-6.93,1.37,1.65,1.65,0,0,0-1.2.61,1.9,1.9,0,0,0-.4,1.5,40.47,40.47,0,0,1,.44,6.21A40.41,40.41,0,0,1,10,31.65a1.9,1.9,0,0,0,.38,1.48,1.64,1.64,0,0,0,1.18.63,25.62,25.62,0,0,1,3.68.61A42.21,42.21,0,0,0,25,35.49a42.21,42.21,0,0,0,9.74-1.12,25.62,25.62,0,0,1,3.68-.61,1.64,1.64,0,0,0,1.18-.63A1.9,1.9,0,0,0,40,31.65a40.41,40.41,0,0,1-.45-6.23A40.47,40.47,0,0,1,40,19.21a1.9,1.9,0,0,0-.4-1.5,1.65,1.65,0,0,0-1.2-.61,25.37,25.37,0,0,1-6.93-1.37A20.9,20.9,0,0,0,25,14.51Z" style="fill:#9964aa"/><path d="M25,23.93H38.58c0-.2,0-.4,0-.59C36,23,28.65,22.09,25,22.09S14,23,11.4,23.34c0,.19,0,.39,0,.59Z" style="fill:#9964aa"/><path d="M11.17,20.37c0,.18,0,.37.06.57a72.85,72.85,0,0,1,27.54,0c0-.2,0-.39.06-.57-2.36-.69-10.07-2.85-13.83-2.85S13.54,19.68,11.17,20.37Z" style="fill:#9964aa"/><path d="M25,33c3.74,0,11.38-2.13,13.79-2.83,0-.18,0-.38-.06-.58A72.85,72.85,0,0,1,25,30.85a72.88,72.88,0,0,1-13.73-1.31c0,.2,0,.4-.06.58C13.62,30.83,21.26,33,25,33Z" style="fill:#9964aa"/><path d="M25,28.39c3.64,0,11-.91,13.58-1.25,0-.19,0-.38,0-.59H11.43c0,.2,0,.39,0,.59C14,27.48,21.36,28.39,25,28.39Z" style="fill:#9964aa"/><path d="M18.69,16.2a25.79,25.79,0,0,1-7.05,1.39,1.14,1.14,0,0,0-.84.43,1.4,1.4,0,0,0-.29,1.11A41,41,0,0,1,11,25.43a40.9,40.9,0,0,1-.45,6.3,1.4,1.4,0,0,0,.28,1.1,1.15,1.15,0,0,0,.83.44,25.92,25.92,0,0,1,3.75.62A41.8,41.8,0,0,0,25,35V15A20.51,20.51,0,0,0,18.69,16.2Z" style="fill:#fee84d"/><path d="M11.66,18.09c5.75-.22,8.65-2.59,13.34-2.59v-1a20.9,20.9,0,0,0-6.45,1.22,25.38,25.38,0,0,1-6.93,1.37,1.65,1.65,0,0,0-1.2.61,1.9,1.9,0,0,0-.4,1.5,40.47,40.47,0,0,1,.44,6.21A40.42,40.42,0,0,1,10,31.65a1.9,1.9,0,0,0,.38,1.48,1.64,1.64,0,0,0,1.18.63,25.62,25.62,0,0,1,3.68.61A42.21,42.21,0,0,0,25,35.49v-1c-7,0-9.94-1.51-13.36-1.73a.8.8,0,0,1-.65-1,41.2,41.2,0,0,0,.46-6.38A41.25,41.25,0,0,0,11,19.06.8.8,0,0,1,11.66,18.09Z" style="fill:#ac78b4"/><path d="M11.42,23.93H25V22.09c-3.64,0-11,.91-13.6,1.25C11.41,23.53,11.42,23.73,11.42,23.93Z" style="fill:#aa76b3"/><path d="M11.17,20.37c0,.18,0,.37.06.57A72.85,72.85,0,0,1,25,19.63V17.52C21.24,17.52,13.54,19.68,11.17,20.37Z" style="fill:#aa76b3"/><path d="M11.21,30.12c2.41.7,10,2.83,13.79,2.83V30.85a72.89,72.89,0,0,1-13.73-1.31C11.25,29.75,11.23,29.94,11.21,30.12Z" style="fill:#aa76b3"/><path d="M11.42,27.14c2.62.34,9.95,1.25,13.58,1.25V26.55H11.43C11.43,26.76,11.42,26.95,11.42,27.14Z" style="fill:#aa76b3"/></svg>